<svg xmlns="http://www.w3.org/2000/svg" viewBox="0 0 711.59 624.84"><title>1Ресурс 1</title><g id="Слой_2" data-name="Слой 2"><g id="Слой_1-2" data-name="Слой 1"><path d="M711.58,246.48H559.53c1.12-23.48,2.23-46.84,3.34-70.23-4-1.79-4.21,1.07-4.88,3.43-5.9,21-11.86,41.94-17.68,62.93-.74,2.67-1.38,4.25-4.8,4.23-39.33-.15-78.65-.1-118-.11-.49,0-1-.11-2.21-.27q35.52-123.3,71-246.46H711.58Z"/><path d="M0,246.45V.1H224.8q36.15,123,72.51,246.65h-5c-40.83,0-81.66-.09-122.49.12-4.29,0-5.59-1.52-6.62-5.26-5.79-21-11.84-42-17.79-62.91-.63-2.21-.71-5-4.75-3.53,1.62,23.59,3.25,47.26,4.91,71.28Z"/><path d="M470.62,490.75h-5.56q-112.74,0-225.49.09c-4.16,0-5.94-1-7.12-5.26q-27.31-97-55-194c-.4-1.42-.7-2.88-1.11-4.59H309.12q8,27.09,15.95,54.11,14.44,49.06,28.94,98.13c.46,1.54,1.77,2.84,2.68,4.25,1.05-1.47,2.6-2.8,3.08-4.44Q381,365.73,402,292.3c1.21-4.25,2.79-5.67,7.34-5.65,37.66.22,75.33.13,113,.13h5.58C508.74,355,489.74,422.66,470.62,490.75Z"/><path d="M557.32,287H711.59v203.5H557.32Z"/><path d="M0,490.44V287.1H147.73c3,67.61.91,135.33,1.72,203.34Z"/><path d="M245.75,531H459.31L433,624.75h-4.91q-75.46,0-150.93.09c-3.76,0-5.38-.87-6.45-4.75-7.84-28.37-16-56.65-24-85C246.31,533.86,246.09,532.56,245.75,531Z"/><path d="M556.92,530.91H711.54v93.52H556.92Z"/><path d="M149.11,531.2v93.23H.07V531.2Z"/></g></g></svg>