<svg xmlns="http://www.w3.org/2000/svg" viewBox="0 0 385.85 503.16"><title>1Ресурс 5</title><g id="Слой_2" data-name="Слой 2"><g id="Слой_1-2" data-name="Слой 1"><path d="M31.49,503.16V359.62H.17V307.3H31V286H0V233.81H31.31V.78A38.17,38.17,0,0,1,36.46,0c73.88.33,147.77-.17,221.62,1.39,43.33.91,80.62,18.84,102.41,56.85,37.87,66.06,35.76,138.69-22.92,194-21.8,20.53-49,28.89-78.11,32a315.63,315.63,0,0,1-32,1.6c-43.26.17-86.52.07-129.79.07H88V307H287.61v52.49H87.42v143.7ZM88.16,53.53v180h23.42c41.84,0,83.68.28,125.51-.14,42.56-.44,69.56-21.67,80.86-62.66,5.42-19.65,5.23-39.42.59-59.15C310,75.25,288.9,57.06,251.89,54.14c-7-.55-14-.57-21-.57q-67-.09-133.93,0Z"/></g></g></svg>