<svg xmlns="http://www.w3.org/2000/svg" viewBox="0 0 248.31 226.19"><defs><style>.cls-1{fill:#19192c;}.cls-2{fill:#22222a;}.cls-3{fill:#292929;}</style></defs><title>1Ресурс 1</title><g id="Слой_2" data-name="Слой 2"><g id="Слой_1-2" data-name="Слой 1"><path class="cls-1" d="M201.34.23c-1.59,1.31-3.5.89-5.29.89q-71.19,0-142.39,0c-1.79,0-3.7.43-5.28-.91C56.71.14,65,0,73.37,0q61,0,122,0C197.35,0,199.34.15,201.34.23Z"/><path class="cls-2" d="M78.38,226c1.44-1.18,3.16-.87,4.8-.87h89.36c1.63,0,3.35-.31,4.79.87Z"/><path class="cls-3" d="M80.41,203.08c-.15-.62-.26-1.07-.31-1.34,0,.25-.13.66-.26,1.24s-.42,1.72-.87,3.42h2.31l-.47-1.78C80.7,204.22,80.57,203.71,80.41,203.08Z"/><path class="cls-3" d="M245.38,34.32c-5.89-9.13-15.11-11.31-25.07-11.85-8-.43-8-.42-7.59-8.59C213.14,5.3,209.26.65,201.34.23c-1.43.69-3,.39-4.42.39Q124.86.65,52.8.62c-1.48,0-3,.31-4.42-.41-7.3,0-11.3,3.59-12,10.48-.36,3.78,2,8.63-.6,11s-7.62.56-11.57.91C11.5,23.78,2.76,31,.59,42.58A34,34,0,0,0,17,78.38C26,83.48,35.2,88.13,44.33,93c4.33,2.29,6.36,5,4.54,10.47-1.52,4.53-1.34,10.12,1.71,13.82,3.51,4.26,16.74,1.4,19-3.94,1.79-4.18,3.23-2.94,5.65-1,8,6.32,16.25,12.19,25.7,16.2,2.8,1.19,5.64,2.94,6.81,5.66,2.91,6.75,7,12.88,10,19.5,2.86,6.22-1.22,12.27-8.12,12.8-2.65.21-5.33.06-8,.07-7.6,0-6.92-.35-6.58,6.74.2,4.15-1.53,5.12-5.29,5-6-.18-12-.11-18,.21-7.89.43-11.91,4.46-12.17,12.33-.25,7.65-.27,15.33,0,23S65,226.15,72.9,226.19c1.83,0,3.65-.12,5.48-.18a7.29,7.29,0,0,1,3.43-.37H173.9a7.29,7.29,0,0,1,3.43.37c7.19.55,12.26-6.82,12.24-13,0-6.66.09-13.32,0-20-.13-10.29-4.27-14.43-14.69-14.64-5.66-.12-11.32-.1-17,0-2.5,0-3.45-.85-3.69-3.42-.83-8.71-.93-8.7-9.69-8.57-.84,0-1.67,0-2.5.09-9.36.55-14.74-7.61-10.39-16.13,3.18-6.22,6.87-12.17,10.31-18.26a6.35,6.35,0,0,1,4-3.41c11.11-3,20.18-9.27,28.11-17.37,2.18-2.22,3.3-3.41,4.91.69,2.3,5.87,13.67,9.1,19.17,5.92.41-.23.95-.63,1-1,.61-4.08,2.42-8.12,1.55-12.27-1.79-8.4-1.63-9.15,6-13.06,8.14-4.16,16.54-7.87,24.45-12.43C241.85,73,248,63.72,248.25,51.1a13,13,0,0,1,0-6.93C248.62,40.5,247.3,37.29,245.38,34.32ZM60.92,95.42c-1.19,1.18-2.15,0-3.07-.56C47.75,88.93,39.4,80.74,30.41,73.38A91,91,0,0,1,17.52,60.91c-4.88-5.93-7.37-12.28-4-19.77,3.31-7.29,10-8,16.06-8.26,7.58-.11,10.28,1.6,11.72,8.29a178.33,178.33,0,0,0,19.28,51.1C61.18,93.26,62,94.33,60.92,95.42Zm21.5,115.41-.54-2H78.36l-.55,2H74.59L78.13,200H82l3.58,10.88Zm9.36-2.24a5,5,0,0,0,1.4-.2c.45-.14.9-.3,1.36-.48v2.47a7.54,7.54,0,0,1-3.07.6,4.86,4.86,0,0,1-3.77-1.42,5.89,5.89,0,0,1-1.31-4.12,6.48,6.48,0,0,1,.64-3,4.54,4.54,0,0,1,1.82-2,5.58,5.58,0,0,1,2.8-.68,7.71,7.71,0,0,1,3.36.76l-.9,2.31a10,10,0,0,0-1.2-.48,4.15,4.15,0,0,0-1.29-.19,1.84,1.84,0,0,0-1.63.86,4.12,4.12,0,0,0-.59,2.36C89.4,207.54,90.2,208.59,91.78,208.59Zm76.48-.9a8.57,8.57,0,0,0,1.74.67,6.59,6.59,0,0,0,1.67.24,1.61,1.61,0,0,0,1-.22.73.73,0,0,0,.31-.59.63.63,0,0,0-.13-.39,1.34,1.34,0,0,0-.39-.33,14,14,0,0,0-1.44-.7,6.79,6.79,0,0,1-1.59-.93,2.88,2.88,0,0,1-.79-1,3.49,3.49,0,0,1-.25-1.39,2.78,2.78,0,0,1,1.09-2.34,4.83,4.83,0,0,1,3-.83,8.44,8.44,0,0,1,3.44.78l-.9,2.26a6.46,6.46,0,0,0-2.63-.7,1.41,1.41,0,0,0-.83.2.61.61,0,0,0-.26.5.72.72,0,0,0,.33.57,13.15,13.15,0,0,0,1.79.92,4.92,4.92,0,0,1,1.95,1.35,3,3,0,0,1,.55,1.82,3.21,3.21,0,0,1-.52,1.79,3.37,3.37,0,0,1-1.47,1.22,5.46,5.46,0,0,1-2.26.43,9.25,9.25,0,0,1-1.82-.15,6.81,6.81,0,0,1-1.53-.53ZM159,200h8.22v2.4h-2.64v8.44h-2.93v-8.44H159Zm-53.06,10.84H103v-4.42H99.59v4.42H96.65V200h2.94v4H103v-4h2.94Zm5.29,0h-3V200h3Zm8.16,0h-3.45L112.4,200h3.29l1.48,5.5a17.46,17.46,0,0,1,.5,2.55c0-.35.11-.78.21-1.3s.2-.93.27-1.22l1.51-5.53h3.28ZM147.13,200H151l4,7.54h0c-.07-1.1-.1-2-.1-2.64V200h2.61v10.84h-3.84l-4-7.63h-.07c.1,1.2.14,2.11.14,2.75v4.88h-2.59Zm-8.34,0h6.44v2.35h-3.51v1.71H145v2.35h-3.25v2h3.51v2.38h-6.44Zm-8.52,7.7h.06l2.22-7.7h3.91v10.84h-2.7v-4.75c0-.25,0-.52,0-.82s0-1,.1-2.22h-.07l-2.19,7.79h-2.79l-2.21-7.8h-.07q.15,2,.15,3.09v4.71h-2.59V200H128ZM143.36,71.82c2.54,6.64,4.82,13.37,7.21,20.06l-1,.78c-7.21-6.09-14.55-12-21.57-18.37-2.58-2.32-4.09-2.14-6.56,0-7.29,6.48-14.82,12.69-22.26,19L98,92.63c2.8-7.14,5.47-14.33,8.43-21.4,3.29-7.89,3.11-8.67-4.51-12.77A69.53,69.53,0,0,1,87.18,48.27,82.59,82.59,0,0,1,105,47.7c9,.81,11.56-1,14.28-9.43A61.42,61.42,0,0,1,125,24.58c2.34,6.2,4.54,11.52,6.36,17,1.55,4.63,4.35,6.54,9.32,6.32,7.58-.32,15.17-.08,22.76-.08l.54,1.39c-5.17,3-10.28,6.08-15.53,8.9C139.81,62.73,139.85,62.63,143.36,71.82Zm88.35-10.26c-11.38,10.77-23.32,20.91-35.52,30.73-1.94,1.57-4.69,4.87-7.11,2.72-1.94-1.73,1.29-4.37,2.36-6.42A199.29,199.29,0,0,0,208.6,41.81c2-8.36,2.85-8.89,11.6-8.9,7.29-.06,13.61,1.57,16.66,9.22C239.53,48.81,237.87,55.73,231.71,61.56Z"/></g></g></svg>