<svg xmlns="http://www.w3.org/2000/svg" viewBox="0 0 184.95 198.8"><defs><style>.cls-1{fill:#292929;}.cls-2{fill:#15152d;}.cls-3{fill:#1b1b2c;}.cls-4{fill:#18182c;}.cls-5{fill:#262629;}.cls-6{fill:#22222a;}</style></defs><title>1Ресурс 3</title><g id="Слой_2" data-name="Слой 2"><g id="Слой_1-2" data-name="Слой 1"><path class="cls-1" d="M141.43,198.48c-2.73-.27-1.78-2.44-1.79-3.84q-.07-60.48-.08-120.95a6.52,6.52,0,0,1,2.35-5.19c9.54-8.84,18.81-17.93,27.67-27.45.75-.8,1.39-2.15,2.8-1.5s.9,2,.9,3.1q0,76-.09,151.94c0,1.42.92,3.55-1.76,3.89A177.83,177.83,0,0,0,141.43,198.48Z"/><path class="cls-1" d="M94.43,198.45c-2.32-.7-1.55-2.69-1.55-4.16,0-27.8,0-55.6-.08-83.4,0-2.58.65-4.4,2.87-5.87,9.18-6,17.92-12.71,26.54-19.51,1-.77,1.88-2.26,3.4-1.34s.85,2.4.85,3.67q0,53.19,0,106.38c0,1.39.58,3.05-1,4.07-8.38-.71-16.78-.08-25.16-.35-1.73-.06-3.63.71-5.19-.73-.28-28.62,0-57.24-.13-80.3,0,22.87,0,51.3,0,79.74A2.77,2.77,0,0,1,94.43,198.45Z"/><path class="cls-1" d="M183.34,30.33c-2.85-2.25-5.86-4.33-8.5-6.8s-4.16-1.82-6.39.7c-26.28,29.72-55.53,56-89.24,77.18-23.28,14.6-47.94,26-74.82,32.38-3.17.75-4.15.44-4-2.95.38-10-1.55-7.87,7.94-10.46C41.13,111.43,70,94.89,97,74.73c22.77-17,43.19-36.55,62.08-57.75,2.36-2.64,2.52-4.11-.57-6.08-2.9-1.85-5.49-4.21-8.16-6.3.63-2.09,2.24-1.65,3.39-1.8,7.1-.9,14.27-1.39,21.31-2.6,4.68-.8,6.46.8,6.38,5.24,1.25,7.2,1.18,14.6,3.32,21.66A2.38,2.38,0,0,1,183.34,30.33Z"/><path class="cls-1" d="M47.45,198.41c-2.38-.71-1.46-2.7-1.47-4.16,0-19.13,0-38.26-.08-57.39,0-2.87.68-4.7,3.42-5.86a257,257,0,0,0,26.23-13.29c2.4-1.35,4-1.86,4,1.86q-.06,38.43-.05,76.86c0,.81,0,1.69-1.09,1.95A230,230,0,0,0,47.45,198.41Z"/><path class="cls-1" d="M.29,148.42c-.08-1.68,1.23-1.72,2.35-2a218.39,218.39,0,0,0,26-7.19c2.38-.82,4.25-1.16,4.24,2.4-.05,18,0,36-.05,54,0,1.06.27,2.45-1.38,2.78-8.08-1-16.2-.16-24.29-.47-2-.08-4,.47-5.88-.47C.52,182.9,1.16,168.3.9,153.71.87,152,1.55,150.06.29,148.42Z"/><path class="cls-2" d="M.29,148.42c1.69,1.63,1.11,3.74,1.12,5.67q.06,21.67,0,43.37c.65.34.64.69,0,1C0,198.43,0,197.36,0,196.37Q.14,172.4.29,148.42Z"/><path class="cls-3" d="M94.43,198.45l0-.94c.28-.68.61-.7,1-.06,9.36,0,18.72-.08,28.08-.18.94,0,1.58.08,1.89,1A283.33,283.33,0,0,1,94.43,198.45Z"/><path class="cls-4" d="M47.45,198.41c3.43-1.91,7.18-.95,10.73-.84,6.74.21,13.56-1.23,20.22.81A301.43,301.43,0,0,1,47.45,198.41Z"/><path class="cls-4" d="M1.43,198.48c0-.34,0-.68,0-1,8.25,0,16.51,0,24.76,0,1.77,0,3.67-.44,5.21.94C21.42,198.94,11.43,198.83,1.43,198.48Z"/><path class="cls-3" d="M141.43,198.48c2.51-1.86,5.43-1.06,8.1-.93,7.3.38,14.69-1.33,21.9.93Z"/><path class="cls-5" d="M95.44,197.45c-.33,0-.66,0-1,.06v-88.4h1Z"/><path class="cls-6" d="M1.8,124.29a9.31,9.31,0,0,1,0,6.59Z"/></g></g></svg>