<svg xmlns="http://www.w3.org/2000/svg" viewBox="0 0 219.13 206.63"><defs><style>.cls-1{fill:#2a2a29;}.cls-2{fill:#2d2d28;}.cls-3{fill:#343427;}.cls-4{fill:#12122d;}.cls-5{fill:#23232a;}.cls-6{fill:#1d1d2b;}.cls-7{fill:#24242a;}.cls-8{fill:#272729;}.cls-9{fill:#25252a;}.cls-10{fill:#282829;}.cls-11{fill:#20202b;}.cls-12{fill:#2c2c28;}.cls-13{fill:#1f1f2b;}.cls-14{fill:#21212a;}</style></defs><title>1Ресурс 4</title><g id="Слой_2" data-name="Слой 2"><g id="Слой_1-2" data-name="Слой 1"><path class="cls-1" d="M30.13,141c-3.49,1.49-7.16.68-10.7.59s-4.82,1.17-4.37,4.61a11.28,11.28,0,0,1,0,4.45c-.72,2.48,2.57,6.77-3.23,7.08C3.16,158.21.94,157,.1,150.93c1-4.42.44-8.89.4-13.32C.37,123.39,1.07,109.17.13,95c-.44-2.41.32-4.61,1.25-6.77q8.91-20.9,17.83-41.81C23.69,35.9,31.55,30.75,43,30.82q27.24.18,54.47,0c11.92-.1,19.91,5.32,24.36,16.26,1.69,4.17,3.34,8.36,5.23,12.43,1.19,2.55.47,3.22-2.11,3.13-3.49-.11-7-.16-10.49,0-2.42.12-3.62-.9-4.44-3.05-5.72-15-5.85-12.84-20.65-12.92s-29.31,0-44,0c-8.53,0-9.49.62-12.77,8.29s-3.27,7.65,5.26,7.65c7,0,14,.08,21,0,2.86,0,3.4.66,2.33,3.44-4.75,12.29-4.67,12.32-17.74,12.32-5.83,0-11.67.11-17.49,0-2.37-.06-3.37,1-4.58,2.91-8.36,13.19-6.15,27.88-6.31,42.24,0,2,1,2.65,2.85,2.54a10.18,10.18,0,0,1,2,0c3.55.47,9-1.82,10.27,1.09,1.79,4,1.45,9.3-.1,14-1.22-3.57-.18-7.26-.53-9.89C30.06,133.77,28.76,137.47,30.13,141Z"/><path class="cls-1" d="M98.88,12.63c3.35-7.45,8.85-12,17.19-12.63,1.73.84,3.59.42,5.38.43q27.58,0,55.18,0c1.8,0,3.65.39,5.39-.41,8,.43,13.57,5,16.62,11.73,6.9,15.29,13.12,30.88,19.54,46.37a9.56,9.56,0,0,1,.76,5.86c-.88,11.88-.29,23.77-.35,35.66,0,6.43-.56,12.87.36,19.29-.83,6-8.71,9.83-14,6.83a2.18,2.18,0,0,1-1.16-2c0-1.16,0-2.32,0-3.49-.06-3,.83-6.49-.44-8.82-1.58-2.87-5.46-.88-8.31-1.17-1.73-.17-2.81-.74-3.33-2.37,0-.15-.16-.29-.22-.44-1.51-4.18-5.84-9-4.2-12.16s7.9-1,12.1-1c3.5,0,4.69-1,4.47-4.54a74.59,74.59,0,0,1,0-13.45c1.16-9.74-2.36-18.23-6.06-26.81-1.22-2.81-3.15-2.86-5.58-2.85q-24.19.09-48.39,0c-1.58,0-3.33.64-4.75-.7,2.13-1.24,4.48-1,6.78-1q20.66,0,41.32,0c-13.77,0-27.55,0-41.33,0-2.29,0-4.66-.36-6.76,1-2.56-3.58-4-7.66-5.16-11.84a3.48,3.48,0,0,1,3.35-1.68q23.79,0,47.59,0-23.31,0-46.61,0c-1.68,0-3.37-.12-4.33,1.69-2.87-3.42-.31-3.28,2.13-3.28h48.33c5.53,0,5.58,0,3.47-5C186.13,22,185,17.64,181,15.2c-1.56-1.48-3.49-.71-5.22-.71-24.08-.07-48.17,0-72.26-.14C102,14.34,99.29,16.09,98.88,12.63Z"/><path class="cls-2" d="M187.23,73c-1.35,4.51-4.65,5.86-8.88,5-3.95-.79-6-3.76-6-7.56s2-6.8,6-7.6c4.19-.85,7.56.4,8.91,5A18.72,18.72,0,0,0,187.23,73Z"/><path class="cls-2" d="M45.21,106c-3.54,4.69-7.85,5.43-11.62,2a7.73,7.73,0,0,1-.32-11.43C36.91,93,41.19,93.48,45,98,45.15,100.64,45,103.34,45.21,106Z"/><path class="cls-3" d="M98.88,12.63c1.72,1.91,4,1.26,6.11,1.26,23.3,0,46.61,0,69.91.06,2.06,0,4.39-.78,6.08,1.25-26.26-.08-52.53-.13-78.79-.32C101,14.87,97.57,16.81,98.88,12.63Z"/><path class="cls-4" d="M.13,95c1,1.09.91,2.44.91,3.78v48.42c0,1.33.08,2.68-.94,3.76Z"/><path class="cls-5" d="M45.21,106c-1.78-2.65-1.62-5.34-.19-8.06A6.19,6.19,0,0,1,45.21,106Z"/><path class="cls-6" d="M187.23,73c-1.62-1.72-1.61-3.45,0-5.18A4.81,4.81,0,0,1,187.23,73Z"/><path class="cls-1" d="M185.54,134.07Q177.1,114,168.7,94c-4.24-10.17-11.94-15.47-22.85-15.58-18.83-.2-37.66-.17-56.5,0C78.2,78.48,70.49,84,66.14,94.28,62.82,102.1,60,110.16,56,117.67c-7.87,15.06-10.77,30.84-9.59,47.74.71,10.29,0,20.66.17,31,.11,7.46,3.11,9.7,11.6,9.69,7.75,0,2.67-5.79,4-8.68a6.46,6.46,0,0,0,0-3.47c-.62-3.92,1.22-4.69,4.81-4.65,16.49.17,33,.07,49.5.07h43.5c12.06,0,12.06,0,12.15,12.23,0,.67,0,1.34,0,2-.1,1.4.53,2,1.9,2.38,8.47,2.33,13.85-1.58,13.87-10.26,0-16.67,0-33.34,0-50A29.34,29.34,0,0,0,185.54,134.07ZM78.31,105.78c1.13-2,1.87-4.26,2.83-6.38A8.11,8.11,0,0,1,89,94.22q28.44-.06,56.87,0c5.48,0,7.65,3.69,9.38,8.17,3,7.84,3.14,7.8-5.2,7.8H117.59c-12.14,0-24.28-.1-36.42.06C77.29,110.29,76.32,109.29,78.31,105.78Zm93.94,57.7c-.2,10.18,0,10.18-10.23,10.18H117.55c-16.33,0-32.66-.18-49,.11-4.82.08-7.1-.76-6.41-6.18a50.52,50.52,0,0,0,0-12.47c-1.2-9.63,2.55-17.9,6.29-26.29,1.1-2.46,2.71-2.9,5.09-2.89q44,.07,88,0c2.58,0,3.61,1.09,4.87,3.2C172.88,139.86,172.49,151.63,172.25,163.48Z"/><ellipse class="cls-5" cx="117.05" cy="175.45" rx="75.76" ry="0.34"/><path class="cls-7" d="M170.32,187.75H63.6v-.5H170.47Z"/><path class="cls-8" d="M48.83,199.38v-61.1C48.31,158.62,49.53,179,48.83,199.38Z"/><path class="cls-6" d="M186.21,198.32V142.56h.47v55.77Z"/><path class="cls-7" d="M60.23,171.38V145.61l.46,0v25.69Z"/><path class="cls-8" d="M39.53,44.68h62.05v1h-62Z"/><ellipse class="cls-9" cx="70.55" cy="32.45" rx="41.11" ry="0.34"/><path class="cls-10" d="M25.61,76.14H53.39v.46H25.71Z"/><path class="cls-11" d="M30.13,141c-2.36-4.07-.32-8.38-1.27-12.53l1.25-.05V141Z"/><path class="cls-8" d="M139,46c.74-2.44,3-1.92,4.56-1.93,16.6-.11,33.2-.07,49.8-.06,1,0,1.93.12,3.29,2H139Z"/><path class="cls-9" d="M133.88,34.13c.49-1.78,1.81-2.17,3.45-2.17,16.72,0,33.45,0,50.19,1H140.13c-2.16,0-4.33-.07-6.25,1.18Z"/><path class="cls-2" d="M82.89,142.82c4.66-1.69,8.36-.33,10.17,3.74a7.94,7.94,0,0,1-4,10.42A7.72,7.72,0,0,1,79,153.32c-2.16-4-.77-7.74,3.94-10.5a2.77,2.77,0,0,0,2.21.62A2.8,2.8,0,0,1,82.89,142.82Z"/><path class="cls-12" d="M145.85,142.78c4.66-1.61,8.47-.12,10.09,3.95a8,8,0,0,1-3.84,10.12c-3.95,2-7.42.64-10.14-3.86a28.09,28.09,0,0,0-.14-6.15,4.71,4.71,0,0,1,4-4.05,2.79,2.79,0,0,0,2.2.65A2.72,2.72,0,0,1,145.85,142.78Z"/><path class="cls-13" d="M141.82,146.84c1.75,2,1.71,4.06.14,6.15A5.15,5.15,0,0,1,141.82,146.84Z"/><path class="cls-14" d="M82.89,142.82l4.2.39c-1.8,1.22-3,.65-4.2-.39Z"/><path class="cls-14" d="M145.85,142.78l4.23.44c-1.83,1.22-3.07.6-4.25-.43Z"/></g></g></svg>