<svg xmlns="http://www.w3.org/2000/svg" viewBox="0 0 166.7 219.52"><defs><style>.cls-1{fill:#292929;}.cls-2{fill:#2a2a29;}</style></defs><title>1Ресурс 6</title><g id="Слой_2" data-name="Слой 2"><g id="Слой_1-2" data-name="Слой 1"><path class="cls-1" d="M166.4,90.66c0-12-1.08-23.9-8.19-33.78-7.32-10.17-8.43-21.13-7.52-32.86,0-.17,0-.34,0-.5.45-4.35-1.35-7.66-4.5-10.56a115.43,115.43,0,0,1-9.37-9.53c-3.77-4.36-8.71-4.44-12.44-.16-2.92,3.35-6.17,6.42-9.33,9.54A4.25,4.25,0,0,1,110.53,14a96.82,96.82,0,0,0-52.15-.39c-2.4.64-4.28.24-5.73-1.58-2.91-3.63-6.61-6.4-10-9.53-3.6-3.36-6.83-3.31-10.41.2-4,4-7.89,8.06-12,11.91a9.46,9.46,0,0,0-3,7.58c.06,6,0,12,0,18a8.86,8.86,0,0,1-1.78,5.41C7,58,.16,71.11.13,86.68c-.08,36-.22,72,0,107.94C.15,208.66,11.14,219,25.27,219q29,0,58,0v.33c18.82,0,37.67-.59,56.46.19,13.89.58,27.4-11.19,27-26.4C165.75,159,166.35,124.81,166.4,90.66Zm-36-75.46c2.65-.16,4.28,2.68,5.82,5.22-1.38,1.77-3.19,4.79-4.72,4.34-2.43-.72-6.54-1.62-6.72-4.17C124.65,18.42,127.68,15.36,130.42,15.2ZM32.25,19.8c.44-2,2.86-5.06,5.13-4.52s4.31,3.27,6.42,5a12.64,12.64,0,0,1-7.19,4.43C35.08,25,31.72,22.23,32.25,19.8ZM153.53,199.14c-3.54-2.07-6.74-7.38-11.44-3-3.44,3.22-1.68,7,2.37,10.65H23c3-3.34,5.46-6.52,2.05-9.7-4.41-4.11-7.84-.51-11.24,2.81-1.9-2.52-2.22-5.17-2.22-7.95q0-45.74,0-91.46c0-2.35-.62-4.23,3.5-3.35,3.64.79,6.72-2,6.63-6.27A49.28,49.28,0,0,1,26,70.17c3.27-7.53,7.49-14.7,13.68-20.36,9.47-8.66,20.41-14.36,33.19-16.3,21.33-3.25,40.21,1.84,55.83,17,10.92,10.6,16.84,23.59,16.83,39,0,3.69,1.62,6.69,5.09,6.88,4.43.26,4,2.75,4,5.61,0,28.31.05,56.63-.09,85C154.45,191,157.59,195.35,153.53,199.14Z"/><path class="cls-1" d="M145.62,122.34c-.1-4.33,0-8.66,0-13,0-7.7-2.07-9.75-9.78-9.76q-26,0-52,0c-17.66,0-35.33,0-53,0-3,0-5.88.17-6.89,3.51-2.74,9.08-1.78,18.28-.54,27.46a1.39,1.39,0,0,0,.63.76c2.53,1.61,2.33,4.12,2.33,6.65,0,10.67-.09,21.34.09,32,.19,11.54,11.57,22.73,23.23,22.78,22.83.11,45.67,0,68.5,0,3.22,0,6.65-.25,9.13-2,8.43-6,14.31-13.38,13.65-24.76-.58-9.79-.15-19.65-.1-29.49,0-1.41-.7-3.24.89-4.14C145.87,130,145.71,126.25,145.62,122.34Zm-18,50.62c-.44.28-1.89-.53-2.53-1.18-2.59-2.63-5.94-3.55-8.42-1.07s-2.14,6.12.56,9a7,7,0,0,1,.73,1.54H50c2.39-3.49,4.69-7.83,1.21-10.63-4.28-3.45-8.33-.09-11.78,3.85-2.73-6.54-1.4-12.86-1.71-19-.08-1.67.12-3.35,0-5-.39-4.06,0-6.18,5.15-4.19,4.54,1.75,10.68-3.18,10.69-8.28,0-3.61,1.24-4.39,4.61-4.37q33,.21,65.95,0c3.49,0,4.49.95,4.52,4.46.08,10.14-.73,20.29.41,30.43C129.18,169.87,129.2,172,127.66,173ZM129,121.41c-15-.28-29.93-.11-44.9-.11-15.3,0-30.6-.19-45.9.12-4.38.09-4.11-2-4.3-5.06-.22-3.56,1-4.38,4.43-4.36q45.41.21,90.8,0c3.61,0,4.4,1.13,4.36,4.5S133.1,121.49,129,121.41Z"/><path class="cls-2" d="M127.07,77.73a125,125,0,0,1-.16-18.46c.36-6.24.26-6.87-6.08-6.89-24.49-.08-49,0-73.48-.07-4.16,0-6.18,1.64-6.13,5.89.08,6.83.1,13.67,0,20.5-.06,4.43,1.83,6.18,6.35,6.1,12.33-.2,24.66-.07,37-.07,12.17,0,24.33,0,36.5,0C127.39,84.69,127.61,84,127.07,77.73Zm-15.69-5.22c-9.13-.2-18.27-.07-27.4-.07s-18.28-.12-27.41.06c-3,.06-4-.79-4-3.9s.91-4,4-4q27.41.19,54.81,0c3.07,0,4,.86,4,3.92S114.5,72.58,111.38,72.51Z"/></g></g></svg>