<svg xmlns="http://www.w3.org/2000/svg" viewBox="0 0 216.17 207.26"><defs><style>.cls-1{fill:#fead01;}.cls-2{fill:#e7d700;}.cls-3{fill:#ddc202;}.cls-4{fill:#eea302;}.cls-5{fill:#f7a201;}.cls-6{fill:#ebb102;}.cls-7{fill:#e2e100;}.cls-8{fill:#fefdfc;}.cls-9{fill:#fefefd;}.cls-10{fill:#f5a701;}.cls-11{fill:#d7e301;}.cls-12{fill:#d8d701;}.cls-13{fill:#d6df01;}.cls-14{fill:#cbd901;}.cls-15{fill:#d5dd00;}.cls-16{fill:#e0d801;}</style></defs><title>1Ресурс 7</title><g id="Слой_2" data-name="Слой 2"><g id="Слой_1-2" data-name="Слой 1"><path class="cls-1" d="M177,156.38c-3.5,8.34-10.2,11.27-18.75,11.26-23.49,0-47,.1-70.47-.12A11.72,11.72,0,0,0,77.92,172c-10.23,11.62-20.69,23-31.06,34.53a1.74,1.74,0,0,1-2.09.65c0-11.26-.22-22.65.1-34,.13-4.45-1.16-5.82-5.58-5.59-6.65.36-13.33.22-20,.06C7.51,167.31,0,159.7,0,148q-.06-38.47,0-77c0-8.93,5.37-15.68,13.77-17.72,7.65-1,15.33-.16,23-.42,40.45,0,80.9.09,121.34-.09,6.83,0,12.38,1.86,16.79,7,3,4.71,3.34,10.11,3.46,15.36.56,24.61-.66,49.22-.44,73.83A24.35,24.35,0,0,1,177,156.38Z"/><path class="cls-2" d="M38.85,12C41.41,4.8,46.84,1.3,54.15.33A33.65,33.65,0,0,1,58.64.16C104,.15,149.25.38,194.55,0c12.22-.1,22,8.46,21.61,21.73-.68,24.63-.51,49.3,0,73.94.18,9.57-7.53,20.32-19.67,19.91-5.15-.17-10.3-.22-15.46-.32-1.83-1.68-1.47-3.93-1.47-6,0-12.55,0-25.1,0-37.64-.08-1.63.3-3.39-1.25-4.62a3.48,3.48,0,0,1-1.47-1.32,3.11,3.11,0,0,1-.26-1.27c1-2.06.13-3.63-1.35-5a20.75,20.75,0,0,0-4.14-4c-2.11-1.77-4.35-3-7.25-2a5.09,5.09,0,0,1-1.51-.19c-1.1-.27-2.17-.58-3.24-.9a37.16,37.16,0,0,0-7-.3q-53.41,0-106.85,0c-2.43,0-5,.63-7.21-1.16C37.37,37.79,36.55,24.87,38.85,12Z"/><path class="cls-3" d="M38.85,12a344.84,344.84,0,0,0-.62,38.31c1.69,1.1,3.58.55,5.36.55q56,.06,112,0c1.8,0,3.66-.45,5.4.46l2,1a3,3,0,0,1-1.71.91c-40.08.28-80.16,0-120.24.11-1.49,0-3,.06-4.21-1.1q.13-15.58.27-31.17C37.14,18,37.07,14.83,38.85,12Z"/><path class="cls-4" d="M36.85,52.29,149,52.41l13,0c0,1.94-1.51,1.43-2.53,1.43q-60.52,0-121,0A3.77,3.77,0,0,1,37,53.43l-23.17-.1C21.4,51,29.17,52.67,36.85,52.29Z"/><path class="cls-5" d="M177.15,64.37l-.15,1c2.74,1.47,2.46,4.1,2.47,6.58,0,12.47.71,25-.18,37.42-1,13.79-.5,27.54-.8,41.31a4.22,4.22,0,0,1-.43,1.92,5.25,5.25,0,0,1-1.08,3.78q0-38.22,0-76.45c0-6.68-.66-13.23-3-19.53,1-.54,1.83-.06,2.58.62A3.09,3.09,0,0,1,177.15,64.37Z"/><path class="cls-6" d="M178.06,152.6q0-40.2-.07-80.4c0-2.32.22-4.68-1-6.83l1.92,0c1.23,1.28,1,2.91,1.07,4.47q0,21,0,42a5.31,5.31,0,0,1-1,3.6c-.05,10.26-.09,20.52-.19,30.78C178.79,148.4,179.23,150.6,178.06,152.6Z"/><path class="cls-7" d="M179,115.51l0-3.12c1-9,.22-17.94.44-26.9.12-5.16-.08-10.33.08-15.49a.91.91,0,0,1,1.42-.6q0,22.93,0,45.86Z"/><path class="cls-8" d="M89.6,100.63c5.94.17,11.16,5.58,11,11.43A11.5,11.5,0,0,1,89.17,123a11.34,11.34,0,0,1-11-11.34C78.34,105.7,83.77,100.46,89.6,100.63Z"/><path class="cls-8" d="M29.88,111.91a11.44,11.44,0,0,1,11.06-11.28,11.55,11.55,0,0,1,11.25,11.15A11.34,11.34,0,0,1,41.07,123,11.21,11.21,0,0,1,29.88,111.91Z"/><path class="cls-9" d="M149,112.05A11.42,11.42,0,0,1,137.55,123a11.22,11.22,0,0,1-10.92-11.34,11.47,11.47,0,0,1,11.36-11A11.61,11.61,0,0,1,149,112.05Z"/><path class="cls-10" d="M175.91,61.41l-1.93-1c-5-4.68-10.86-6.17-17.78-6.12-37.66.26-75.31.13-113,.09-2.1,0-4.36.66-6.25-.94q59.37,0,118.75-.06c2.09,0,4.35.67,6.24-.93l1-.07h1c3.42-.61,5.83,1.4,8.33,3.19a22.61,22.61,0,0,1,4.06,3.94A1.6,1.6,0,0,1,175.91,61.41Z"/><path class="cls-11" d="M161,51.39q-58.82,0-117.64,0c-1.73,0-3.71.71-5.12-1q58.28,0,116.55.1C156.86,50.43,159.13,49.75,161,51.39Z"/><path class="cls-12" d="M172,56.29c-2.34-2-5.35-2.56-8-3.92,3.45-2.42,5.63.13,8,2A1.22,1.22,0,0,1,172,56.29Z"/><path class="cls-13" d="M175.91,61.41l0-1.89c-.3-.27-.39-.53-.27-.77s.23-.37.34-.37c1.61,1.76,4.72,3.24,1.14,6C176.74,63.38,176.32,62.4,175.91,61.41Z"/><path class="cls-14" d="M176,58.38c0,.38,0,.76-.07,1.14L172,56.29c0-.63,0-1.26,0-1.89A11,11,0,0,1,176,58.38Z"/><path class="cls-15" d="M181,69.4h-1c-.33.64-.65.63-1,0,0-1.33-.07-2.66-.11-4C181.43,65.8,180.88,67.77,181,69.4Z"/><path class="cls-16" d="M179,69.4h1c0,12.59,0,25.17,0,37.75,0,1.78.48,3.68-.93,5.23Q179,90.9,179,69.4Z"/></g></g></svg>