<svg xmlns="http://www.w3.org/2000/svg" viewBox="0 0 142.9 190.25"><defs><style>.cls-1{fill:#292929;}.cls-2{fill:#1e1e2a;}.cls-3{fill:#252529;}.cls-4{fill:#11112e;}.cls-5{fill:#14142d;}.cls-6{fill:#15152c;}.cls-7{fill:#1d1d2a;}.cls-8{fill:#16162c;}.cls-9{fill:#1c1c2b;}.cls-10{fill:#1a1a2b;}.cls-11{fill:#19192b;}.cls-12{fill:#20202a;}</style></defs><title>1Ресурс 8</title><g id="Слой_2" data-name="Слой 2"><g id="Слой_1-2" data-name="Слой 1"><path class="cls-1" d="M9.24,64.94A10.06,10.06,0,0,1,4,64.18c1-.85,1.93-1,2.45-.49a16.41,16.41,0,0,0-6.16.18c-.95-4.51,1-8.57,2.24-12.64,7.82-26.64,24.2-44.45,52.29-49.9.81-.15,1.64-.13,2.46-.2a2.25,2.25,0,0,0,1.7.41,3.31,3.31,0,0,1,1,.15c-.16-.41-.76-.3-.9-.75A16.17,16.17,0,0,1,66.22.09a56.65,56.65,0,0,0,16,0,12.12,12.12,0,0,1,6.3.8,1.94,1.94,0,0,0-.42.77c.72-.17,1.55,0,2.14-.62,41.62,5.32,63.85,45.84,47,81.49-3.29,7-8.5,12.28-14.4,17-5.59,4.47-11.27,8.82-17,13.12-4.73,3.56-8.82,7.56-10.53,13.47a4.6,4.6,0,0,1-2.77.91c-13.55-.07-27.09.36-40.63-.23-2.57-2.14-.28-5.3-1.6-7.7a11.89,11.89,0,0,1,.76-6.27c.79.45.54,1.26.65,1.94-.14-.91.24-1.93-.56-2.71.25-9.06,5.51-15.46,11.56-21.35,5.72-5.57,11.82-10.76,16.88-17,5.55-6.84,6.86-14.75,5.44-23.09C84,44,80.05,39.48,73.22,38.3c-7.09-1.23-13.34.46-17.65,6.62-4,5.79-5.1,12.5-5.6,19.41-.11,1.53,1.6,4.24-1.76,4.73-1.83-2,.94-3.66.47-5.49-1.1,4-1.84,4.66-5.62,4.44-2.28-.13-4.54-1-6.83-.07a7.06,7.06,0,0,1-4.33-.72c-1.47-1.43-3.08-.52-4.66-.3A10.11,10.11,0,0,1,22,66.16a2,2,0,0,1,2.37-.38,12.77,12.77,0,0,0-6.13.16A10.09,10.09,0,0,1,13,65.17a1.58,1.58,0,0,1,2-.47C13.18,64.56,11.19,64.2,9.24,64.94Z"/><path class="cls-2" d="M48.38,141.08c.47-1.34,1.63-.85,2.51-.85q23.34,0,46.68,0c.88,0,2-.47,2.52.84a4.16,4.16,0,0,1-1.79,2.19,265.32,265.32,0,0,1-48.16,0A4,4,0,0,1,48.38,141.08Z"/><path class="cls-3" d="M51.23,126.05l44.1,0c.25,2-1,2.07-2.47,2.06l-41.27,0A1.19,1.19,0,0,1,50.24,127C50.59,126.73,50.62,126.09,51.23,126.05Z"/><path class="cls-4" d="M100.18,189.05c-.18,1.48-1.36,1.18-2.26,1.18q-24.36-.07-48.71-.21a1.4,1.4,0,0,1,.43-1.73,6.87,6.87,0,0,1,4.7-1.29q20.23-.13,40.45,0a7.79,7.79,0,0,1,3.85.86A9.49,9.49,0,0,1,100.18,189.05Z"/><path class="cls-5" d="M49.22,189c0,.32,0,.65,0,1-1.14-.14-1.09-1-1.09-1.83q.12-23.56.26-47.11l.86,1c2,1.7,2.06,4,2.07,6.36q.06,17.13,0,34.24C51.3,185,51.2,187.34,49.22,189Z"/><path class="cls-6" d="M100.18,189.05h-1c-2-1.7-2.06-4-2.07-6.37q-.08-17.11,0-34.23c0-2.34.08-4.66,2.06-6.36l.91-1C100.67,157.07,100.49,173.06,100.18,189.05Z"/><path class="cls-1" d="M36.23,67.94c1.1-1,2.46-.85,3.79-.89,7.53-.28,7.53-.28,8.77-8.12a19.12,19.12,0,0,1-.58,10.13C44.13,69.62,40.2,68.55,36.23,67.94Z"/><path class="cls-7" d="M.25,63.87c2.05-1.34,4.26-.78,6.62-.63-.82,1.25-2,.53-2.91.94Z"/><path class="cls-8" d="M51.23,126.05l-1,1a25.3,25.3,0,0,1,.09-8C51.9,121.24,50.93,123.72,51.23,126.05Z"/><path class="cls-9" d="M9.24,64.94c1.35-1.23,3-.84,4.59-.84.29,0,1.58-.22.54.77-.29.28-.92.21-1.39.3Z"/><path class="cls-10" d="M18.24,65.94c1.34-1.23,3-.84,4.58-.84.28,0,1.55-.25.56.75-.27.29-.91.22-1.38.31Z"/><path class="cls-11" d="M27.24,66.92a5.46,5.46,0,0,1,5.19-.67c1.21.38-.29.63-.53,1Z"/><path class="cls-12" d="M51.18,112c1.29,1.32,1.19,2.87.74,4.62-1.27-1.17-.34-2.67-.83-3.85A.55.55,0,0,1,51.18,112Z"/><path class="cls-2" d="M67.77,36.18h3.81l.06.46h-4Z"/><path class="cls-1" d="M99.18,142.08q0,23.47,0,47h-50q0-23.49,0-47Z"/></g></g></svg>