<svg xmlns="http://www.w3.org/2000/svg" viewBox="0 0 222 194.94"><defs><style>.cls-1{fill:#fdfd00;}.cls-2{fill:#292929;}.cls-3{fill:#fefe00;}.cls-4{fill:#2a2a29;}</style></defs><title>1Ресурс 9</title><g id="Слой_2" data-name="Слой 2"><g id="Слой_1-2" data-name="Слой 1"><path class="cls-1" d="M110.88,194.89q-49,0-98,0C5.2,194.86-.46,188.8,0,181.56c.17-2.52,1.63-4.33,2.77-6.3Q41.47,108.15,80.24,41.11c6.33-11,12.6-21.95,19-32.86,2.47-4.18,5.36-8,11-8.24,6.26-.26,9.67,3.63,12.43,8.39Q144.45,46,166.19,83.66q26.25,45.42,52.5,90.85c4.65,8.06,4.43,11.77-.82,17-2.66,2.61-5.78,3.49-9.51,3.48C175.86,194.85,143.37,194.89,110.88,194.89Z"/><path class="cls-2" d="M110.94,189H15.46c-9,0-11.46-4.11-6.91-12q47.7-82.66,95.51-165.28c4.36-7.53,9.31-7.56,13.65-.07q47.94,82.83,95.77,165.71c4.33,7.49,1.8,11.61-7,11.62Q158.69,189,110.94,189Z"/><path class="cls-3" d="M111.07,174.29c-26.33,0-52.66-.06-79,.06-4.21,0-4.44-1-2.46-4.42Q69,102.07,108.24,34.11c.71-1.23.92-3.28,2.57-3.39,1.83-.11,1.94,2,2.65,3.25q39.33,67.91,78.65,135.8c2.16,3.72,1.91,4.61-2.54,4.59C163.4,174.22,137.24,174.29,111.07,174.29Z"/><path class="cls-2" d="M123.7,69.45c-1.67,18.25-3.17,35.5-4.86,52.74a8.13,8.13,0,0,1-8.41,7.62c-4.6,0-7.88-3.09-8.37-8.15-1.63-16.91-3.26-33.82-4.72-50.75A13.1,13.1,0,0,1,110.2,56.7C117.83,56.68,123.88,62.86,123.7,69.45Z"/><path class="cls-4" d="M110.71,137.87a12.86,12.86,0,0,1,13.11,13.33,13.05,13.05,0,0,1-13.14,12.89,13.29,13.29,0,0,1-13.44-13.18A13.08,13.08,0,0,1,110.71,137.87Z"/></g></g></svg>